<?xml version="1.0" encoding="utf-8"?>
<!-- Generator: Adobe Illustrator 28.1.0, SVG Export Plug-In . SVG Version: 6.00 Build 0)  -->
<svg version="1.1" id="Layer_1" xmlns="http://www.w3.org/2000/svg" xmlns:xlink="http://www.w3.org/1999/xlink" x="0px" y="0px"
	 viewBox="0 0 93 22.9" style="enable-background:new 0 0 93 22.9;" xml:space="preserve">
<style type="text/css">
	.st0{fill:#EE4036;}
</style>
<g>
	<g>
		<path class="st0" d="M23,19h-2.8v3.9h-6.7V19H0V9.3L9.8,0h9.5L6.6,11.7v1.7h6.9v-3.1l6.7-6.2v9.3H23L23,19L23,19z"/>
		<path class="st0" d="M34.3,17.7h0.9L37.8,0h11.8l2.6,17.7h0.9L56.4,0h7.2l-4.3,22.9H46.7L44.1,5.2h-0.8l-2.6,17.7H28.1L23.8,0H31
			L34.3,17.7z"/>
	</g>
	<g>
		<path class="st0" d="M78.9,13.7h-4.9v9.2h-7.4V0h7.4v8.3h4.7L84.4,0h8.3l-7.4,10.7L93,22.9h-8.3L78.9,13.7z"/>
	</g>
</g>
</svg>
